<mxfile host="65bd71144e">
    <diagram name="V1" id="47WVzpaAEmKhuTjTFZ55">
        <mxGraphModel dx="1045" dy="512" grid="1" gridSize="10" guides="1" tooltips="1" connect="1" arrows="1" fold="1" page="1" pageScale="1" pageWidth="3300" pageHeight="4681" math="0" shadow="0">
            <root>
                <mxCell id="0"/>
                <mxCell id="1" parent="0"/>
                <mxCell id="PfiAu45vPu5QX1juMYGj-2" value="Input Data" style="rounded=0;whiteSpace=wrap;html=1;dashed=1;fillColor=#f5f5f5;fontColor=#333333;strokeColor=#666666;" parent="1" vertex="1">
                    <mxGeometry x="160" y="80" width="120" height="120" as="geometry"/>
                </mxCell>
                <mxCell id="PfiAu45vPu5QX1juMYGj-3" value="" style="labelPosition=right;align=left;strokeWidth=1;shape=mxgraph.mockup.markup.curlyBrace;html=1;shadow=0;dashed=0;strokeColor=#000000;direction=north;" parent="1" vertex="1">
                    <mxGeometry x="140" y="80" width="20" height="120" as="geometry"/>
                </mxCell>
                <mxCell id="PfiAu45vPu5QX1juMYGj-4" value="" style="verticalLabelPosition=bottom;shadow=0;dashed=0;align=center;html=1;verticalAlign=top;strokeWidth=1;shape=mxgraph.mockup.markup.curlyBrace;whiteSpace=wrap;strokeColor=#000000;rotation=-180;" parent="1" vertex="1">
                    <mxGeometry x="160" y="200" width="120" height="30" as="geometry"/>
                </mxCell>
                <mxCell id="PfiAu45vPu5QX1juMYGj-5" value="Last N seasons" style="text;html=1;align=center;verticalAlign=middle;whiteSpace=wrap;rounded=0;" parent="1" vertex="1">
                    <mxGeometry x="190" y="230" width="60" height="30" as="geometry"/>
                </mxCell>
                <mxCell id="PfiAu45vPu5QX1juMYGj-6" value="- Team Point%&lt;br&gt;&lt;div style=&quot;text-align: left;&quot;&gt;&lt;span style=&quot;background-color: initial;&quot;&gt;- Team win%&lt;/span&gt;&lt;/div&gt;&lt;div style=&quot;text-align: left;&quot;&gt;&lt;span style=&quot;background-color: initial;&quot;&gt;- Goals for&lt;/span&gt;&lt;/div&gt;&lt;div style=&quot;text-align: left;&quot;&gt;- Goals against&lt;/div&gt;&lt;div style=&quot;text-align: left;&quot;&gt;&lt;br&gt;&lt;/div&gt;" style="text;html=1;align=center;verticalAlign=middle;whiteSpace=wrap;rounded=0;" parent="1" vertex="1">
                    <mxGeometry x="40" y="70" width="110" height="160" as="geometry"/>
                </mxCell>
                <mxCell id="PfiAu45vPu5QX1juMYGj-7" value="LSTM" style="shape=step;perimeter=stepPerimeter;whiteSpace=wrap;html=1;fixedSize=1;fillColor=#ffe6cc;strokeColor=#d79b00;" parent="1" vertex="1">
                    <mxGeometry x="280" y="80" width="120" height="120" as="geometry"/>
                </mxCell>
                <mxCell id="PfiAu45vPu5QX1juMYGj-8" value="" style="rounded=0;whiteSpace=wrap;html=1;dashed=1;fillColor=#f8cecc;strokeColor=#b85450;" parent="1" vertex="1">
                    <mxGeometry x="400" y="80" width="30" height="120" as="geometry"/>
                </mxCell>
                <mxCell id="PfiAu45vPu5QX1juMYGj-9" value="&lt;span style=&quot;color: rgb(0, 0, 0); font-family: Helvetica; font-size: 12px; font-style: normal; font-variant-ligatures: normal; font-variant-caps: normal; font-weight: 400; letter-spacing: normal; orphans: 2; text-indent: 0px; text-transform: none; widows: 2; word-spacing: 0px; -webkit-text-stroke-width: 0px; background-color: rgb(251, 251, 251); text-decoration-thickness: initial; text-decoration-style: initial; text-decoration-color: initial; float: none; display: inline !important;&quot;&gt;latent&lt;/span&gt;&lt;br style=&quot;border-color: var(--border-color); color: rgb(0, 0, 0); font-family: Helvetica; font-size: 12px; font-style: normal; font-variant-ligatures: normal; font-variant-caps: normal; font-weight: 400; letter-spacing: normal; orphans: 2; text-indent: 0px; text-transform: none; widows: 2; word-spacing: 0px; -webkit-text-stroke-width: 0px; background-color: rgb(251, 251, 251); text-decoration-thickness: initial; text-decoration-style: initial; text-decoration-color: initial;&quot;&gt;&lt;span style=&quot;color: rgb(0, 0, 0); font-family: Helvetica; font-size: 12px; font-style: normal; font-variant-ligatures: normal; font-variant-caps: normal; font-weight: 400; letter-spacing: normal; orphans: 2; text-indent: 0px; text-transform: none; widows: 2; word-spacing: 0px; -webkit-text-stroke-width: 0px; background-color: rgb(251, 251, 251); text-decoration-thickness: initial; text-decoration-style: initial; text-decoration-color: initial; float: none; display: inline !important;&quot;&gt;representation&lt;/span&gt;" style="text;whiteSpace=wrap;html=1;align=center;" parent="1" vertex="1">
                    <mxGeometry x="360" y="40" width="110" height="50" as="geometry"/>
                </mxCell>
                <mxCell id="PfiAu45vPu5QX1juMYGj-11" value="Size 1 x &lt;i&gt;h&lt;/i&gt;" style="text;html=1;align=center;verticalAlign=middle;whiteSpace=wrap;rounded=0;" parent="1" vertex="1">
                    <mxGeometry x="385" y="200" width="60" height="30" as="geometry"/>
                </mxCell>
                <mxCell id="PfiAu45vPu5QX1juMYGj-14" value="" style="rounded=0;whiteSpace=wrap;html=1;dashed=1;fillColor=#f5f5f5;fontColor=#333333;strokeColor=#666666;" parent="1" vertex="1">
                    <mxGeometry x="490" y="100" width="30" height="80" as="geometry"/>
                </mxCell>
                <mxCell id="PfiAu45vPu5QX1juMYGj-15" value="" style="shape=trapezoid;perimeter=trapezoidPerimeter;whiteSpace=wrap;html=1;fixedSize=1;rotation=90;fillColor=#fff2cc;strokeColor=#d6b656;" parent="1" vertex="1">
                    <mxGeometry x="400" y="110" width="120" height="60" as="geometry"/>
                </mxCell>
                <mxCell id="PfiAu45vPu5QX1juMYGj-16" value="Linear" style="text;html=1;align=center;verticalAlign=middle;whiteSpace=wrap;rounded=0;" parent="1" vertex="1">
                    <mxGeometry x="430" y="125" width="60" height="30" as="geometry"/>
                </mxCell>
                <mxCell id="PfiAu45vPu5QX1juMYGj-17" value="N+1 season" style="text;html=1;align=center;verticalAlign=middle;whiteSpace=wrap;rounded=0;" parent="1" vertex="1">
                    <mxGeometry x="475" y="190" width="60" height="30" as="geometry"/>
                </mxCell>
                <mxCell id="PfiAu45vPu5QX1juMYGj-18" value="- Team Point%&lt;br&gt;&lt;div style=&quot;text-align: left;&quot;&gt;&lt;span style=&quot;background-color: initial;&quot;&gt;- Team win%&lt;/span&gt;&lt;/div&gt;&lt;div style=&quot;text-align: left;&quot;&gt;&lt;span style=&quot;background-color: initial;&quot;&gt;- Goals for&lt;/span&gt;&lt;/div&gt;&lt;div style=&quot;text-align: left;&quot;&gt;- Goals against&lt;/div&gt;&lt;div style=&quot;text-align: left;&quot;&gt;&lt;br&gt;&lt;/div&gt;" style="text;html=1;align=center;verticalAlign=middle;whiteSpace=wrap;rounded=0;" parent="1" vertex="1">
                    <mxGeometry x="540" y="70" width="110" height="160" as="geometry"/>
                </mxCell>
                <mxCell id="PfiAu45vPu5QX1juMYGj-19" value="" style="labelPosition=right;align=left;strokeWidth=1;shape=mxgraph.mockup.markup.curlyBrace;html=1;shadow=0;dashed=0;strokeColor=#000000;direction=north;rotation=-180;" parent="1" vertex="1">
                    <mxGeometry x="520" y="100" width="20" height="80" as="geometry"/>
                </mxCell>
                <mxCell id="PfiAu45vPu5QX1juMYGj-21" value="" style="edgeStyle=segmentEdgeStyle;endArrow=classic;html=1;curved=0;rounded=0;endSize=8;startSize=8;entryX=0;entryY=0.5;entryDx=0;entryDy=0;" parent="1" source="PfiAu45vPu5QX1juMYGj-8" target="PfiAu45vPu5QX1juMYGj-23" edge="1">
                    <mxGeometry width="50" height="50" relative="1" as="geometry">
                        <mxPoint x="415" y="200" as="sourcePoint"/>
                        <mxPoint x="445" y="390" as="targetPoint"/>
                        <Array as="points">
                            <mxPoint x="415" y="390"/>
                        </Array>
                    </mxGeometry>
                </mxCell>
                <mxCell id="PfiAu45vPu5QX1juMYGj-23" value="" style="rounded=0;whiteSpace=wrap;html=1;dashed=1;fillColor=#f8cecc;strokeColor=#b85450;" parent="1" vertex="1">
                    <mxGeometry x="445" y="330" width="30" height="120" as="geometry"/>
                </mxCell>
                <mxCell id="PfiAu45vPu5QX1juMYGj-24" value="&lt;span style=&quot;color: rgb(0, 0, 0); font-family: Helvetica; font-size: 12px; font-style: normal; font-variant-ligatures: normal; font-variant-caps: normal; font-weight: 400; letter-spacing: normal; orphans: 2; text-indent: 0px; text-transform: none; widows: 2; word-spacing: 0px; -webkit-text-stroke-width: 0px; background-color: rgb(251, 251, 251); text-decoration-thickness: initial; text-decoration-style: initial; text-decoration-color: initial; float: none; display: inline !important;&quot;&gt;learned latent&lt;/span&gt;&lt;br style=&quot;border-color: var(--border-color); color: rgb(0, 0, 0); font-family: Helvetica; font-size: 12px; font-style: normal; font-variant-ligatures: normal; font-variant-caps: normal; font-weight: 400; letter-spacing: normal; orphans: 2; text-indent: 0px; text-transform: none; widows: 2; word-spacing: 0px; -webkit-text-stroke-width: 0px; background-color: rgb(251, 251, 251); text-decoration-thickness: initial; text-decoration-style: initial; text-decoration-color: initial;&quot;&gt;&lt;span style=&quot;color: rgb(0, 0, 0); font-family: Helvetica; font-size: 12px; font-style: normal; font-variant-ligatures: normal; font-variant-caps: normal; font-weight: 400; letter-spacing: normal; orphans: 2; text-indent: 0px; text-transform: none; widows: 2; word-spacing: 0px; -webkit-text-stroke-width: 0px; background-color: rgb(251, 251, 251); text-decoration-thickness: initial; text-decoration-style: initial; text-decoration-color: initial; float: none; display: inline !important;&quot;&gt;representation&lt;/span&gt;" style="text;whiteSpace=wrap;html=1;align=center;" parent="1" vertex="1">
                    <mxGeometry x="410" y="290" width="110" height="50" as="geometry"/>
                </mxCell>
                <mxCell id="PfiAu45vPu5QX1juMYGj-25" value="Team-as-an-entity Approach" style="text;html=1;align=center;verticalAlign=middle;whiteSpace=wrap;rounded=0;fontSize=18;fontStyle=1" parent="1" vertex="1">
                    <mxGeometry x="40" y="20" width="155" height="40" as="geometry"/>
                </mxCell>
                <mxCell id="PfiAu45vPu5QX1juMYGj-26" value="Team-as-a-sum-of-players Approach" style="text;html=1;align=center;verticalAlign=middle;whiteSpace=wrap;rounded=0;fontSize=18;fontStyle=1" parent="1" vertex="1">
                    <mxGeometry x="40" y="550" width="235" height="40" as="geometry"/>
                </mxCell>
                <mxCell id="PfiAu45vPu5QX1juMYGj-27" value="Input Data&lt;br&gt;Player 1" style="rounded=0;whiteSpace=wrap;html=1;dashed=1;fillColor=#f5f5f5;fontColor=#333333;strokeColor=#666666;" parent="1" vertex="1">
                    <mxGeometry x="135" y="640" width="80" height="80" as="geometry"/>
                </mxCell>
                <mxCell id="PfiAu45vPu5QX1juMYGj-28" value="" style="verticalLabelPosition=bottom;shadow=0;dashed=0;align=center;html=1;verticalAlign=top;strokeWidth=1;shape=mxgraph.mockup.markup.curlyBrace;whiteSpace=wrap;strokeColor=#000000;rotation=-180;" parent="1" vertex="1">
                    <mxGeometry x="135" y="720" width="80" height="30" as="geometry"/>
                </mxCell>
                <mxCell id="PfiAu45vPu5QX1juMYGj-29" value="Last N seasons" style="text;html=1;align=center;verticalAlign=middle;whiteSpace=wrap;rounded=0;" parent="1" vertex="1">
                    <mxGeometry x="145" y="750" width="60" height="30" as="geometry"/>
                </mxCell>
                <mxCell id="PfiAu45vPu5QX1juMYGj-31" value="" style="labelPosition=right;align=left;strokeWidth=1;shape=mxgraph.mockup.markup.curlyBrace;html=1;shadow=0;dashed=0;strokeColor=#000000;direction=north;" parent="1" vertex="1">
                    <mxGeometry x="115" y="640" width="20" height="80" as="geometry"/>
                </mxCell>
                <mxCell id="PfiAu45vPu5QX1juMYGj-32" value="- Games Played&lt;br&gt;&lt;div style=&quot;text-align: left;&quot;&gt;&lt;span style=&quot;background-color: initial;&quot;&gt;- Goals&lt;/span&gt;&lt;/div&gt;&lt;div style=&quot;text-align: left;&quot;&gt;&lt;span style=&quot;background-color: initial;&quot;&gt;- Assists&lt;/span&gt;&lt;/div&gt;&lt;div style=&quot;text-align: left;&quot;&gt;- Goals against&lt;/div&gt;&lt;div style=&quot;text-align: left;&quot;&gt;- Time on Ice&amp;nbsp;&lt;/div&gt;" style="text;html=1;align=center;verticalAlign=middle;whiteSpace=wrap;rounded=0;" parent="1" vertex="1">
                    <mxGeometry x="10" y="640" width="110" height="80" as="geometry"/>
                </mxCell>
                <mxCell id="PfiAu45vPu5QX1juMYGj-33" value="LSTM" style="shape=step;perimeter=stepPerimeter;whiteSpace=wrap;html=1;fixedSize=1;fillColor=#ffe6cc;strokeColor=#d79b00;" parent="1" vertex="1">
                    <mxGeometry x="215" y="640" width="80" height="80" as="geometry"/>
                </mxCell>
                <mxCell id="PfiAu45vPu5QX1juMYGj-34" value="P1" style="rounded=0;whiteSpace=wrap;html=1;dashed=1;fillColor=#f5f5f5;fontColor=#333333;strokeColor=#666666;" parent="1" vertex="1">
                    <mxGeometry x="295" y="640" width="30" height="80" as="geometry"/>
                </mxCell>
                <mxCell id="PfiAu45vPu5QX1juMYGj-35" value="&lt;span style=&quot;color: rgb(0, 0, 0); font-family: Helvetica; font-size: 12px; font-style: normal; font-variant-ligatures: normal; font-variant-caps: normal; font-weight: 400; letter-spacing: normal; orphans: 2; text-indent: 0px; text-transform: none; widows: 2; word-spacing: 0px; -webkit-text-stroke-width: 0px; background-color: rgb(251, 251, 251); text-decoration-thickness: initial; text-decoration-style: initial; text-decoration-color: initial; float: none; display: inline !important;&quot;&gt;latent&lt;/span&gt;&lt;br style=&quot;border-color: var(--border-color); color: rgb(0, 0, 0); font-family: Helvetica; font-size: 12px; font-style: normal; font-variant-ligatures: normal; font-variant-caps: normal; font-weight: 400; letter-spacing: normal; orphans: 2; text-indent: 0px; text-transform: none; widows: 2; word-spacing: 0px; -webkit-text-stroke-width: 0px; background-color: rgb(251, 251, 251); text-decoration-thickness: initial; text-decoration-style: initial; text-decoration-color: initial;&quot;&gt;&lt;span style=&quot;color: rgb(0, 0, 0); font-family: Helvetica; font-size: 12px; font-style: normal; font-variant-ligatures: normal; font-variant-caps: normal; font-weight: 400; letter-spacing: normal; orphans: 2; text-indent: 0px; text-transform: none; widows: 2; word-spacing: 0px; -webkit-text-stroke-width: 0px; background-color: rgb(251, 251, 251); text-decoration-thickness: initial; text-decoration-style: initial; text-decoration-color: initial; float: none; display: inline !important;&quot;&gt;representation&lt;/span&gt;" style="text;whiteSpace=wrap;html=1;align=center;" parent="1" vertex="1">
                    <mxGeometry x="255" y="600" width="110" height="50" as="geometry"/>
                </mxCell>
                <mxCell id="PfiAu45vPu5QX1juMYGj-36" value="Size 1 x &lt;i&gt;h&lt;/i&gt;" style="text;html=1;align=center;verticalAlign=middle;whiteSpace=wrap;rounded=0;" parent="1" vertex="1">
                    <mxGeometry x="280" y="720" width="60" height="30" as="geometry"/>
                </mxCell>
                <mxCell id="PfiAu45vPu5QX1juMYGj-37" value="Input Data&lt;br&gt;Player 2" style="rounded=0;whiteSpace=wrap;html=1;dashed=1;fillColor=#f5f5f5;fontColor=#333333;strokeColor=#666666;" parent="1" vertex="1">
                    <mxGeometry x="135" y="800" width="80" height="80" as="geometry"/>
                </mxCell>
                <mxCell id="PfiAu45vPu5QX1juMYGj-38" value="LSTM" style="shape=step;perimeter=stepPerimeter;whiteSpace=wrap;html=1;fixedSize=1;fillColor=#ffe6cc;strokeColor=#d79b00;" parent="1" vertex="1">
                    <mxGeometry x="215" y="800" width="80" height="80" as="geometry"/>
                </mxCell>
                <mxCell id="PfiAu45vPu5QX1juMYGj-39" value="P2" style="rounded=0;whiteSpace=wrap;html=1;dashed=1;fillColor=#f5f5f5;fontColor=#333333;strokeColor=#666666;" parent="1" vertex="1">
                    <mxGeometry x="295" y="800" width="30" height="80" as="geometry"/>
                </mxCell>
                <mxCell id="PfiAu45vPu5QX1juMYGj-40" value="Input Data&lt;br&gt;Player k" style="rounded=0;whiteSpace=wrap;html=1;dashed=1;fillColor=#f5f5f5;fontColor=#333333;strokeColor=#666666;" parent="1" vertex="1">
                    <mxGeometry x="135" y="920" width="80" height="80" as="geometry"/>
                </mxCell>
                <mxCell id="PfiAu45vPu5QX1juMYGj-41" value="LSTM" style="shape=step;perimeter=stepPerimeter;whiteSpace=wrap;html=1;fixedSize=1;fillColor=#ffe6cc;strokeColor=#d79b00;" parent="1" vertex="1">
                    <mxGeometry x="215" y="920" width="80" height="80" as="geometry"/>
                </mxCell>
                <mxCell id="PfiAu45vPu5QX1juMYGj-42" value="Pk" style="rounded=0;whiteSpace=wrap;html=1;dashed=1;fillColor=#f5f5f5;fontColor=#333333;strokeColor=#666666;" parent="1" vertex="1">
                    <mxGeometry x="295" y="920" width="30" height="80" as="geometry"/>
                </mxCell>
                <mxCell id="PfiAu45vPu5QX1juMYGj-47" value="Aggregator" style="shape=cross;whiteSpace=wrap;html=1;size=0.4249991099039633;" parent="1" vertex="1">
                    <mxGeometry x="445" y="780" width="120" height="120" as="geometry"/>
                </mxCell>
                <mxCell id="PfiAu45vPu5QX1juMYGj-48" value="" style="endArrow=classic;startArrow=classic;html=1;rounded=0;entryX=0.346;entryY=1.004;entryDx=0;entryDy=0;entryPerimeter=0;" parent="1" target="PfiAu45vPu5QX1juMYGj-33" edge="1">
                    <mxGeometry width="50" height="50" relative="1" as="geometry">
                        <mxPoint x="243" y="800" as="sourcePoint"/>
                        <mxPoint x="295" y="750" as="targetPoint"/>
                    </mxGeometry>
                </mxCell>
                <mxCell id="PfiAu45vPu5QX1juMYGj-49" value="shared weights&amp;nbsp;" style="text;html=1;align=center;verticalAlign=middle;whiteSpace=wrap;rounded=0;fontStyle=2" parent="1" vertex="1">
                    <mxGeometry x="235" y="750" width="60" height="30" as="geometry"/>
                </mxCell>
                <mxCell id="PfiAu45vPu5QX1juMYGj-50" value="" style="endArrow=classic;html=1;rounded=0;exitX=1;exitY=0.5;exitDx=0;exitDy=0;entryX=0;entryY=0;entryDx=0;entryDy=34.5000534057622;entryPerimeter=0;" parent="1" source="PfiAu45vPu5QX1juMYGj-34" target="PfiAu45vPu5QX1juMYGj-47" edge="1">
                    <mxGeometry width="50" height="50" relative="1" as="geometry">
                        <mxPoint x="405" y="800" as="sourcePoint"/>
                        <mxPoint x="455" y="750" as="targetPoint"/>
                    </mxGeometry>
                </mxCell>
                <mxCell id="PfiAu45vPu5QX1juMYGj-51" style="edgeStyle=orthogonalEdgeStyle;rounded=0;orthogonalLoop=1;jettySize=auto;html=1;entryX=0;entryY=0.5;entryDx=0;entryDy=0;entryPerimeter=0;" parent="1" source="PfiAu45vPu5QX1juMYGj-39" target="PfiAu45vPu5QX1juMYGj-47" edge="1">
                    <mxGeometry relative="1" as="geometry"/>
                </mxCell>
                <mxCell id="PfiAu45vPu5QX1juMYGj-53" value="" style="endArrow=classic;html=1;rounded=0;exitX=1;exitY=0.5;exitDx=0;exitDy=0;entryX=0;entryY=0;entryDx=0;entryDy=85.4999465942378;entryPerimeter=0;" parent="1" source="PfiAu45vPu5QX1juMYGj-42" target="PfiAu45vPu5QX1juMYGj-47" edge="1">
                    <mxGeometry width="50" height="50" relative="1" as="geometry">
                        <mxPoint x="405" y="800" as="sourcePoint"/>
                        <mxPoint x="455" y="750" as="targetPoint"/>
                    </mxGeometry>
                </mxCell>
                <mxCell id="PfiAu45vPu5QX1juMYGj-54" value="Addition:&lt;br&gt;uniform, or weighted by time on ice" style="text;html=1;align=center;verticalAlign=middle;whiteSpace=wrap;rounded=0;fontStyle=2" parent="1" vertex="1">
                    <mxGeometry x="330" y="790" width="100" height="30" as="geometry"/>
                </mxCell>
                <mxCell id="PfiAu45vPu5QX1juMYGj-55" value="" style="rounded=0;whiteSpace=wrap;html=1;dashed=1;fillColor=#f5f5f5;fontColor=#333333;strokeColor=#666666;" parent="1" vertex="1">
                    <mxGeometry x="655" y="800" width="30" height="80" as="geometry"/>
                </mxCell>
                <mxCell id="PfiAu45vPu5QX1juMYGj-56" value="" style="shape=trapezoid;perimeter=trapezoidPerimeter;whiteSpace=wrap;html=1;fixedSize=1;rotation=90;fillColor=#fff2cc;strokeColor=#d6b656;" parent="1" vertex="1">
                    <mxGeometry x="565" y="810" width="120" height="60" as="geometry"/>
                </mxCell>
                <mxCell id="PfiAu45vPu5QX1juMYGj-57" value="N+1 season" style="text;html=1;align=center;verticalAlign=middle;whiteSpace=wrap;rounded=0;" parent="1" vertex="1">
                    <mxGeometry x="640" y="880" width="60" height="30" as="geometry"/>
                </mxCell>
                <mxCell id="PfiAu45vPu5QX1juMYGj-58" value="- Team Point%&lt;br&gt;&lt;div style=&quot;text-align: left;&quot;&gt;&lt;span style=&quot;background-color: initial;&quot;&gt;- Team win%&lt;/span&gt;&lt;/div&gt;&lt;div style=&quot;text-align: left;&quot;&gt;&lt;span style=&quot;background-color: initial;&quot;&gt;- Goals for&lt;/span&gt;&lt;/div&gt;&lt;div style=&quot;text-align: left;&quot;&gt;- Goals against&lt;/div&gt;&lt;div style=&quot;text-align: left;&quot;&gt;&lt;br&gt;&lt;/div&gt;" style="text;html=1;align=center;verticalAlign=middle;whiteSpace=wrap;rounded=0;" parent="1" vertex="1">
                    <mxGeometry x="705" y="770" width="110" height="160" as="geometry"/>
                </mxCell>
                <mxCell id="PfiAu45vPu5QX1juMYGj-59" value="" style="labelPosition=right;align=left;strokeWidth=1;shape=mxgraph.mockup.markup.curlyBrace;html=1;shadow=0;dashed=0;strokeColor=#000000;direction=north;rotation=-180;" parent="1" vertex="1">
                    <mxGeometry x="685" y="800" width="20" height="80" as="geometry"/>
                </mxCell>
                <mxCell id="PfiAu45vPu5QX1juMYGj-60" value="Linear" style="text;html=1;align=center;verticalAlign=middle;whiteSpace=wrap;rounded=0;" parent="1" vertex="1">
                    <mxGeometry x="595" y="825" width="60" height="30" as="geometry"/>
                </mxCell>
                <mxCell id="PfiAu45vPu5QX1juMYGj-61" value="" style="rounded=0;whiteSpace=wrap;html=1;dashed=1;fillColor=#f8cecc;strokeColor=#b85450;" parent="1" vertex="1">
                    <mxGeometry x="565" y="780" width="30" height="120" as="geometry"/>
                </mxCell>
                <mxCell id="PfiAu45vPu5QX1juMYGj-62" value="&lt;span style=&quot;color: rgb(0, 0, 0); font-family: Helvetica; font-size: 12px; font-style: normal; font-variant-ligatures: normal; font-variant-caps: normal; font-weight: 400; letter-spacing: normal; orphans: 2; text-indent: 0px; text-transform: none; widows: 2; word-spacing: 0px; -webkit-text-stroke-width: 0px; background-color: rgb(251, 251, 251); text-decoration-thickness: initial; text-decoration-style: initial; text-decoration-color: initial; float: none; display: inline !important;&quot;&gt;aggregated latent&lt;/span&gt;&lt;br style=&quot;border-color: var(--border-color); color: rgb(0, 0, 0); font-family: Helvetica; font-size: 12px; font-style: normal; font-variant-ligatures: normal; font-variant-caps: normal; font-weight: 400; letter-spacing: normal; orphans: 2; text-indent: 0px; text-transform: none; widows: 2; word-spacing: 0px; -webkit-text-stroke-width: 0px; background-color: rgb(251, 251, 251); text-decoration-thickness: initial; text-decoration-style: initial; text-decoration-color: initial;&quot;&gt;&lt;span style=&quot;color: rgb(0, 0, 0); font-family: Helvetica; font-size: 12px; font-style: normal; font-variant-ligatures: normal; font-variant-caps: normal; font-weight: 400; letter-spacing: normal; orphans: 2; text-indent: 0px; text-transform: none; widows: 2; word-spacing: 0px; -webkit-text-stroke-width: 0px; background-color: rgb(251, 251, 251); text-decoration-thickness: initial; text-decoration-style: initial; text-decoration-color: initial; float: none; display: inline !important;&quot;&gt;representation&lt;/span&gt;" style="text;whiteSpace=wrap;html=1;align=center;" parent="1" vertex="1">
                    <mxGeometry x="525" y="740" width="110" height="50" as="geometry"/>
                </mxCell>
                <mxCell id="PfiAu45vPu5QX1juMYGj-63" value="Size 1 x &lt;i&gt;h&lt;/i&gt;" style="text;html=1;align=center;verticalAlign=middle;whiteSpace=wrap;rounded=0;" parent="1" vertex="1">
                    <mxGeometry x="550" y="900" width="60" height="30" as="geometry"/>
                </mxCell>
                <mxCell id="PfiAu45vPu5QX1juMYGj-64" value="" style="endArrow=none;dashed=1;html=1;dashPattern=1 3;strokeWidth=2;rounded=0;" parent="1" edge="1">
                    <mxGeometry width="50" height="50" relative="1" as="geometry">
                        <mxPoint x="174.57999999999998" y="920" as="sourcePoint"/>
                        <mxPoint x="174.57999999999998" y="880" as="targetPoint"/>
                    </mxGeometry>
                </mxCell>
                <mxCell id="PfiAu45vPu5QX1juMYGj-65" value="" style="endArrow=none;dashed=1;html=1;dashPattern=1 3;strokeWidth=2;rounded=0;" parent="1" edge="1">
                    <mxGeometry width="50" height="50" relative="1" as="geometry">
                        <mxPoint x="254.17" y="920" as="sourcePoint"/>
                        <mxPoint x="254.17" y="880" as="targetPoint"/>
                    </mxGeometry>
                </mxCell>
                <mxCell id="PfiAu45vPu5QX1juMYGj-66" value="" style="endArrow=none;dashed=1;html=1;dashPattern=1 3;strokeWidth=2;rounded=0;" parent="1" edge="1">
                    <mxGeometry width="50" height="50" relative="1" as="geometry">
                        <mxPoint x="309.58" y="920" as="sourcePoint"/>
                        <mxPoint x="309.58" y="880" as="targetPoint"/>
                    </mxGeometry>
                </mxCell>
                <mxCell id="PfiAu45vPu5QX1juMYGj-67" value="" style="edgeStyle=segmentEdgeStyle;endArrow=classic;html=1;curved=0;rounded=0;endSize=8;startSize=8;entryX=0;entryY=0.5;entryDx=0;entryDy=0;" parent="1" target="PfiAu45vPu5QX1juMYGj-68" edge="1">
                    <mxGeometry width="50" height="50" relative="1" as="geometry">
                        <mxPoint x="580" y="900" as="sourcePoint"/>
                        <mxPoint x="610" y="1090" as="targetPoint"/>
                        <Array as="points">
                            <mxPoint x="580" y="1090"/>
                        </Array>
                    </mxGeometry>
                </mxCell>
                <mxCell id="PfiAu45vPu5QX1juMYGj-68" value="" style="rounded=0;whiteSpace=wrap;html=1;dashed=1;fillColor=#f8cecc;strokeColor=#b85450;" parent="1" vertex="1">
                    <mxGeometry x="610" y="1030" width="30" height="120" as="geometry"/>
                </mxCell>
                <mxCell id="PfiAu45vPu5QX1juMYGj-69" value="&lt;span style=&quot;color: rgb(0, 0, 0); font-family: Helvetica; font-size: 12px; font-style: normal; font-variant-ligatures: normal; font-variant-caps: normal; font-weight: 400; letter-spacing: normal; orphans: 2; text-indent: 0px; text-transform: none; widows: 2; word-spacing: 0px; -webkit-text-stroke-width: 0px; background-color: rgb(251, 251, 251); text-decoration-thickness: initial; text-decoration-style: initial; text-decoration-color: initial; float: none; display: inline !important;&quot;&gt;learned latent&lt;/span&gt;&lt;br style=&quot;border-color: var(--border-color); color: rgb(0, 0, 0); font-family: Helvetica; font-size: 12px; font-style: normal; font-variant-ligatures: normal; font-variant-caps: normal; font-weight: 400; letter-spacing: normal; orphans: 2; text-indent: 0px; text-transform: none; widows: 2; word-spacing: 0px; -webkit-text-stroke-width: 0px; background-color: rgb(251, 251, 251); text-decoration-thickness: initial; text-decoration-style: initial; text-decoration-color: initial;&quot;&gt;&lt;span style=&quot;color: rgb(0, 0, 0); font-family: Helvetica; font-size: 12px; font-style: normal; font-variant-ligatures: normal; font-variant-caps: normal; font-weight: 400; letter-spacing: normal; orphans: 2; text-indent: 0px; text-transform: none; widows: 2; word-spacing: 0px; -webkit-text-stroke-width: 0px; background-color: rgb(251, 251, 251); text-decoration-thickness: initial; text-decoration-style: initial; text-decoration-color: initial; float: none; display: inline !important;&quot;&gt;representation&lt;/span&gt;" style="text;whiteSpace=wrap;html=1;align=center;" parent="1" vertex="1">
                    <mxGeometry x="575" y="990" width="110" height="50" as="geometry"/>
                </mxCell>
                <mxCell id="PfiAu45vPu5QX1juMYGj-71" value="Player Stats Predictor (no team)" style="text;html=1;align=center;verticalAlign=middle;whiteSpace=wrap;rounded=0;fontSize=18;fontStyle=1" parent="1" vertex="1">
                    <mxGeometry x="35" y="1190" width="295" height="40" as="geometry"/>
                </mxCell>
                <mxCell id="PfiAu45vPu5QX1juMYGj-72" value="Input Data&lt;div&gt;&lt;br/&gt;&lt;/div&gt;" style="rounded=0;whiteSpace=wrap;html=1;dashed=1;fillColor=#f5f5f5;fontColor=#333333;strokeColor=#666666;" parent="1" vertex="1">
                    <mxGeometry x="170" y="1270" width="80" height="80" as="geometry"/>
                </mxCell>
                <mxCell id="PfiAu45vPu5QX1juMYGj-73" value="" style="verticalLabelPosition=bottom;shadow=0;dashed=0;align=center;html=1;verticalAlign=top;strokeWidth=1;shape=mxgraph.mockup.markup.curlyBrace;whiteSpace=wrap;strokeColor=#000000;rotation=-180;" parent="1" vertex="1">
                    <mxGeometry x="170" y="1350" width="80" height="30" as="geometry"/>
                </mxCell>
                <mxCell id="PfiAu45vPu5QX1juMYGj-74" value="Last N seasons" style="text;html=1;align=center;verticalAlign=middle;whiteSpace=wrap;rounded=0;" parent="1" vertex="1">
                    <mxGeometry x="180" y="1380" width="60" height="30" as="geometry"/>
                </mxCell>
                <mxCell id="PfiAu45vPu5QX1juMYGj-75" value="" style="labelPosition=right;align=left;strokeWidth=1;shape=mxgraph.mockup.markup.curlyBrace;html=1;shadow=0;dashed=0;strokeColor=#000000;direction=north;" parent="1" vertex="1">
                    <mxGeometry x="150" y="1270" width="20" height="80" as="geometry"/>
                </mxCell>
                <mxCell id="PfiAu45vPu5QX1juMYGj-76" value="- Games Played&lt;br&gt;&lt;div style=&quot;text-align: left;&quot;&gt;&lt;span style=&quot;background-color: initial;&quot;&gt;- Goals&lt;/span&gt;&lt;/div&gt;&lt;div style=&quot;text-align: left;&quot;&gt;&lt;span style=&quot;background-color: initial;&quot;&gt;- Assists&lt;/span&gt;&lt;/div&gt;&lt;div style=&quot;text-align: left;&quot;&gt;- Goals against&lt;/div&gt;&lt;div style=&quot;text-align: left;&quot;&gt;- Time on Ice&amp;nbsp;&lt;/div&gt;" style="text;html=1;align=center;verticalAlign=middle;whiteSpace=wrap;rounded=0;" parent="1" vertex="1">
                    <mxGeometry x="45" y="1270" width="110" height="80" as="geometry"/>
                </mxCell>
                <mxCell id="PfiAu45vPu5QX1juMYGj-77" value="LSTM" style="shape=step;perimeter=stepPerimeter;whiteSpace=wrap;html=1;fixedSize=1;fillColor=#ffe6cc;strokeColor=#d79b00;" parent="1" vertex="1">
                    <mxGeometry x="250" y="1270" width="80" height="80" as="geometry"/>
                </mxCell>
                <mxCell id="PfiAu45vPu5QX1juMYGj-78" value="" style="rounded=0;whiteSpace=wrap;html=1;dashed=1;fillColor=#e1d5e7;strokeColor=#9673a6;" parent="1" vertex="1">
                    <mxGeometry x="330" y="1270" width="30" height="80" as="geometry"/>
                </mxCell>
                <mxCell id="PfiAu45vPu5QX1juMYGj-79" value="&lt;span style=&quot;color: rgb(0, 0, 0); font-family: Helvetica; font-size: 12px; font-style: normal; font-variant-ligatures: normal; font-variant-caps: normal; font-weight: 400; letter-spacing: normal; orphans: 2; text-indent: 0px; text-transform: none; widows: 2; word-spacing: 0px; -webkit-text-stroke-width: 0px; background-color: rgb(251, 251, 251); text-decoration-thickness: initial; text-decoration-style: initial; text-decoration-color: initial; float: none; display: inline !important;&quot;&gt;latent&lt;/span&gt;&lt;br style=&quot;border-color: var(--border-color); color: rgb(0, 0, 0); font-family: Helvetica; font-size: 12px; font-style: normal; font-variant-ligatures: normal; font-variant-caps: normal; font-weight: 400; letter-spacing: normal; orphans: 2; text-indent: 0px; text-transform: none; widows: 2; word-spacing: 0px; -webkit-text-stroke-width: 0px; background-color: rgb(251, 251, 251); text-decoration-thickness: initial; text-decoration-style: initial; text-decoration-color: initial;&quot;&gt;&lt;span style=&quot;color: rgb(0, 0, 0); font-family: Helvetica; font-size: 12px; font-style: normal; font-variant-ligatures: normal; font-variant-caps: normal; font-weight: 400; letter-spacing: normal; orphans: 2; text-indent: 0px; text-transform: none; widows: 2; word-spacing: 0px; -webkit-text-stroke-width: 0px; background-color: rgb(251, 251, 251); text-decoration-thickness: initial; text-decoration-style: initial; text-decoration-color: initial; float: none; display: inline !important;&quot;&gt;representation&lt;/span&gt;" style="text;whiteSpace=wrap;html=1;align=center;" parent="1" vertex="1">
                    <mxGeometry x="290" y="1230" width="110" height="50" as="geometry"/>
                </mxCell>
                <mxCell id="PfiAu45vPu5QX1juMYGj-80" value="Size 1 x &lt;i&gt;h&lt;/i&gt;" style="text;html=1;align=center;verticalAlign=middle;whiteSpace=wrap;rounded=0;" parent="1" vertex="1">
                    <mxGeometry x="315" y="1350" width="60" height="30" as="geometry"/>
                </mxCell>
                <mxCell id="PfiAu45vPu5QX1juMYGj-84" value="" style="rounded=0;whiteSpace=wrap;html=1;dashed=1;fillColor=#f5f5f5;fontColor=#333333;strokeColor=#666666;" parent="1" vertex="1">
                    <mxGeometry x="430" y="1290" width="30" height="40" as="geometry"/>
                </mxCell>
                <mxCell id="PfiAu45vPu5QX1juMYGj-85" value="" style="shape=trapezoid;perimeter=trapezoidPerimeter;whiteSpace=wrap;html=1;fixedSize=1;rotation=90;fillColor=#fff2cc;strokeColor=#d6b656;" parent="1" vertex="1">
                    <mxGeometry x="355" y="1275" width="80" height="70" as="geometry"/>
                </mxCell>
                <mxCell id="PfiAu45vPu5QX1juMYGj-86" value="Linear" style="text;html=1;align=center;verticalAlign=middle;whiteSpace=wrap;rounded=0;" parent="1" vertex="1">
                    <mxGeometry x="365" y="1295" width="60" height="30" as="geometry"/>
                </mxCell>
                <mxCell id="PfiAu45vPu5QX1juMYGj-87" value="N+1 season" style="text;html=1;align=center;verticalAlign=middle;whiteSpace=wrap;rounded=0;" parent="1" vertex="1">
                    <mxGeometry x="425" y="1340" width="60" height="30" as="geometry"/>
                </mxCell>
                <mxCell id="PfiAu45vPu5QX1juMYGj-88" value="" style="labelPosition=right;align=left;strokeWidth=1;shape=mxgraph.mockup.markup.curlyBrace;html=1;shadow=0;dashed=0;strokeColor=#000000;direction=north;rotation=-180;" parent="1" vertex="1">
                    <mxGeometry x="460" y="1290" width="20" height="40" as="geometry"/>
                </mxCell>
                <mxCell id="PfiAu45vPu5QX1juMYGj-89" value="- Games Played&lt;br&gt;&lt;div style=&quot;text-align: left;&quot;&gt;&lt;span style=&quot;background-color: initial;&quot;&gt;- Goals&lt;/span&gt;&lt;/div&gt;&lt;div style=&quot;text-align: left;&quot;&gt;&lt;span style=&quot;background-color: initial;&quot;&gt;- Assists&lt;/span&gt;&lt;/div&gt;&lt;div style=&quot;text-align: left;&quot;&gt;- Goals against&lt;/div&gt;&lt;div style=&quot;text-align: left;&quot;&gt;- Time on Ice&amp;nbsp;&lt;/div&gt;" style="text;html=1;align=center;verticalAlign=middle;whiteSpace=wrap;rounded=0;" parent="1" vertex="1">
                    <mxGeometry x="475" y="1270" width="110" height="80" as="geometry"/>
                </mxCell>
                <mxCell id="PfiAu45vPu5QX1juMYGj-90" value="Final Player Stats Predictor (with team)" style="text;html=1;align=center;verticalAlign=middle;whiteSpace=wrap;rounded=0;fontSize=18;fontStyle=1" parent="1" vertex="1">
                    <mxGeometry x="22.5" y="1540" width="375" height="40" as="geometry"/>
                </mxCell>
                <mxCell id="PfiAu45vPu5QX1juMYGj-91" value="" style="edgeStyle=segmentEdgeStyle;endArrow=classic;html=1;curved=0;rounded=0;endSize=8;startSize=8;entryX=0;entryY=0.5;entryDx=0;entryDy=0;" parent="1" edge="1">
                    <mxGeometry width="50" height="50" relative="1" as="geometry">
                        <mxPoint x="345" y="1350" as="sourcePoint"/>
                        <mxPoint x="375" y="1450" as="targetPoint"/>
                        <Array as="points">
                            <mxPoint x="345" y="1450"/>
                        </Array>
                    </mxGeometry>
                </mxCell>
                <mxCell id="PfiAu45vPu5QX1juMYGj-92" value="" style="rounded=0;whiteSpace=wrap;html=1;dashed=1;fillColor=#e1d5e7;strokeColor=#9673a6;" parent="1" vertex="1">
                    <mxGeometry x="375" y="1410" width="30" height="80" as="geometry"/>
                </mxCell>
                <mxCell id="PfiAu45vPu5QX1juMYGj-93" value="&lt;span style=&quot;color: rgb(0, 0, 0); font-family: Helvetica; font-size: 12px; font-style: normal; font-variant-ligatures: normal; font-variant-caps: normal; font-weight: 400; letter-spacing: normal; orphans: 2; text-indent: 0px; text-transform: none; widows: 2; word-spacing: 0px; -webkit-text-stroke-width: 0px; background-color: rgb(251, 251, 251); text-decoration-thickness: initial; text-decoration-style: initial; text-decoration-color: initial; float: none; display: inline !important;&quot;&gt;learned latent&lt;/span&gt;&lt;br style=&quot;border-color: var(--border-color); color: rgb(0, 0, 0); font-family: Helvetica; font-size: 12px; font-style: normal; font-variant-ligatures: normal; font-variant-caps: normal; font-weight: 400; letter-spacing: normal; orphans: 2; text-indent: 0px; text-transform: none; widows: 2; word-spacing: 0px; -webkit-text-stroke-width: 0px; background-color: rgb(251, 251, 251); text-decoration-thickness: initial; text-decoration-style: initial; text-decoration-color: initial;&quot;&gt;&lt;span style=&quot;color: rgb(0, 0, 0); font-family: Helvetica; font-size: 12px; font-style: normal; font-variant-ligatures: normal; font-variant-caps: normal; font-weight: 400; letter-spacing: normal; orphans: 2; text-indent: 0px; text-transform: none; widows: 2; word-spacing: 0px; -webkit-text-stroke-width: 0px; background-color: rgb(251, 251, 251); text-decoration-thickness: initial; text-decoration-style: initial; text-decoration-color: initial; float: none; display: inline !important;&quot;&gt;representation&lt;/span&gt;" style="text;whiteSpace=wrap;html=1;align=center;" parent="1" vertex="1">
                    <mxGeometry x="400" y="1425" width="110" height="50" as="geometry"/>
                </mxCell>
                <mxCell id="PfiAu45vPu5QX1juMYGj-100" value="" style="rounded=0;whiteSpace=wrap;html=1;dashed=1;fillColor=#e1d5e7;strokeColor=#9673a6;" parent="1" vertex="1">
                    <mxGeometry x="190" y="1580" width="30" height="80" as="geometry"/>
                </mxCell>
                <mxCell id="PfiAu45vPu5QX1juMYGj-101" value="&lt;span style=&quot;color: rgb(0, 0, 0); font-family: Helvetica; font-size: 12px; font-style: normal; font-variant-ligatures: normal; font-variant-caps: normal; font-weight: 400; letter-spacing: normal; orphans: 2; text-indent: 0px; text-transform: none; widows: 2; word-spacing: 0px; -webkit-text-stroke-width: 0px; background-color: rgb(251, 251, 251); text-decoration-thickness: initial; text-decoration-style: initial; text-decoration-color: initial; float: none; display: inline !important;&quot;&gt;Player latent&lt;/span&gt;&lt;br style=&quot;border-color: var(--border-color); color: rgb(0, 0, 0); font-family: Helvetica; font-size: 12px; font-style: normal; font-variant-ligatures: normal; font-variant-caps: normal; font-weight: 400; letter-spacing: normal; orphans: 2; text-indent: 0px; text-transform: none; widows: 2; word-spacing: 0px; -webkit-text-stroke-width: 0px; background-color: rgb(251, 251, 251); text-decoration-thickness: initial; text-decoration-style: initial; text-decoration-color: initial;&quot;&gt;&lt;span style=&quot;color: rgb(0, 0, 0); font-family: Helvetica; font-size: 12px; font-style: normal; font-variant-ligatures: normal; font-variant-caps: normal; font-weight: 400; letter-spacing: normal; orphans: 2; text-indent: 0px; text-transform: none; widows: 2; word-spacing: 0px; -webkit-text-stroke-width: 0px; background-color: rgb(251, 251, 251); text-decoration-thickness: initial; text-decoration-style: initial; text-decoration-color: initial; float: none; display: inline !important;&quot;&gt;representation&lt;/span&gt;" style="text;whiteSpace=wrap;html=1;align=center;" parent="1" vertex="1">
                    <mxGeometry x="87.5" y="1595" width="110" height="50" as="geometry"/>
                </mxCell>
                <mxCell id="PfiAu45vPu5QX1juMYGj-102" value="" style="rounded=0;whiteSpace=wrap;html=1;dashed=1;fillColor=#f8cecc;strokeColor=#b85450;" parent="1" vertex="1">
                    <mxGeometry x="190" y="1660" width="30" height="110" as="geometry"/>
                </mxCell>
                <mxCell id="PfiAu45vPu5QX1juMYGj-103" value="&lt;span style=&quot;color: rgb(0, 0, 0); font-family: Helvetica; font-size: 12px; font-style: normal; font-variant-ligatures: normal; font-variant-caps: normal; font-weight: 400; letter-spacing: normal; orphans: 2; text-indent: 0px; text-transform: none; widows: 2; word-spacing: 0px; -webkit-text-stroke-width: 0px; background-color: rgb(251, 251, 251); text-decoration-thickness: initial; text-decoration-style: initial; text-decoration-color: initial; float: none; display: inline !important;&quot;&gt;Team latent&lt;/span&gt;&lt;br style=&quot;border-color: var(--border-color); color: rgb(0, 0, 0); font-family: Helvetica; font-size: 12px; font-style: normal; font-variant-ligatures: normal; font-variant-caps: normal; font-weight: 400; letter-spacing: normal; orphans: 2; text-indent: 0px; text-transform: none; widows: 2; word-spacing: 0px; -webkit-text-stroke-width: 0px; background-color: rgb(251, 251, 251); text-decoration-thickness: initial; text-decoration-style: initial; text-decoration-color: initial;&quot;&gt;&lt;span style=&quot;color: rgb(0, 0, 0); font-family: Helvetica; font-size: 12px; font-style: normal; font-variant-ligatures: normal; font-variant-caps: normal; font-weight: 400; letter-spacing: normal; orphans: 2; text-indent: 0px; text-transform: none; widows: 2; word-spacing: 0px; -webkit-text-stroke-width: 0px; background-color: rgb(251, 251, 251); text-decoration-thickness: initial; text-decoration-style: initial; text-decoration-color: initial; float: none; display: inline !important;&quot;&gt;representation&lt;/span&gt;" style="text;whiteSpace=wrap;html=1;align=center;" parent="1" vertex="1">
                    <mxGeometry x="87.5" y="1695" width="110" height="50" as="geometry"/>
                </mxCell>
                <mxCell id="PfiAu45vPu5QX1juMYGj-104" value="Feed-Forward Neural Net" style="rounded=0;whiteSpace=wrap;html=1;fillColor=#d5e8d4;strokeColor=#82b366;" parent="1" vertex="1">
                    <mxGeometry x="220" y="1580" width="100" height="190" as="geometry"/>
                </mxCell>
                <mxCell id="PfiAu45vPu5QX1juMYGj-105" value="" style="shape=trapezoid;perimeter=trapezoidPerimeter;whiteSpace=wrap;html=1;fixedSize=1;rotation=90;fillColor=#fff2cc;strokeColor=#d6b656;size=65.61999999999989;" parent="1" vertex="1">
                    <mxGeometry x="251.88" y="1647.5" width="193.12" height="55" as="geometry"/>
                </mxCell>
                <mxCell id="PfiAu45vPu5QX1juMYGj-106" value="Linear" style="text;html=1;align=center;verticalAlign=middle;whiteSpace=wrap;rounded=0;" parent="1" vertex="1">
                    <mxGeometry x="318.44" y="1660" width="60" height="30" as="geometry"/>
                </mxCell>
                <mxCell id="PfiAu45vPu5QX1juMYGj-107" value="" style="rounded=0;whiteSpace=wrap;html=1;dashed=1;fillColor=#f5f5f5;fontColor=#333333;strokeColor=#666666;" parent="1" vertex="1">
                    <mxGeometry x="378.44" y="1645" width="30" height="65" as="geometry"/>
                </mxCell>
                <mxCell id="PfiAu45vPu5QX1juMYGj-108" value="N+1 season" style="text;html=1;align=center;verticalAlign=middle;whiteSpace=wrap;rounded=0;" parent="1" vertex="1">
                    <mxGeometry x="365" y="1715" width="60" height="30" as="geometry"/>
                </mxCell>
                <mxCell id="PfiAu45vPu5QX1juMYGj-109" value="" style="labelPosition=right;align=left;strokeWidth=1;shape=mxgraph.mockup.markup.curlyBrace;html=1;shadow=0;dashed=0;strokeColor=#000000;direction=north;rotation=-180;" parent="1" vertex="1">
                    <mxGeometry x="410" y="1642.5" width="20" height="65" as="geometry"/>
                </mxCell>
                <mxCell id="PfiAu45vPu5QX1juMYGj-110" value="- Games Played&lt;br&gt;&lt;div style=&quot;text-align: left;&quot;&gt;&lt;span style=&quot;background-color: initial;&quot;&gt;- Goals&lt;/span&gt;&lt;/div&gt;&lt;div style=&quot;text-align: left;&quot;&gt;&lt;span style=&quot;background-color: initial;&quot;&gt;- Assists&lt;/span&gt;&lt;/div&gt;&lt;div style=&quot;text-align: left;&quot;&gt;- Goals against&lt;/div&gt;&lt;div style=&quot;text-align: left;&quot;&gt;- Time on Ice&amp;nbsp;&lt;/div&gt;" style="text;html=1;align=center;verticalAlign=middle;whiteSpace=wrap;rounded=0;" parent="1" vertex="1">
                    <mxGeometry x="425" y="1635" width="110" height="80" as="geometry"/>
                </mxCell>
                <mxCell id="PfiAu45vPu5QX1juMYGj-111" value="" style="shape=flexArrow;endArrow=classic;html=1;rounded=0;entryX=0.5;entryY=1;entryDx=0;entryDy=0;" parent="1" target="PfiAu45vPu5QX1juMYGj-102" edge="1">
                    <mxGeometry width="50" height="50" relative="1" as="geometry">
                        <mxPoint x="200" y="1860" as="sourcePoint"/>
                        <mxPoint x="207.5" y="1780" as="targetPoint"/>
                    </mxGeometry>
                </mxCell>
                <mxCell id="PfiAu45vPu5QX1juMYGj-112" value="Note: This can be the new team of the player for the season we are trying to predict stats for. Could be really good if they just got transferred" style="text;whiteSpace=wrap;html=1;align=center;fontStyle=2" parent="1" vertex="1">
                    <mxGeometry x="85" y="1860" width="240" height="70" as="geometry"/>
                </mxCell>
                <mxCell id="PfiAu45vPu5QX1juMYGj-115" value="" style="curved=1;endArrow=classic;html=1;rounded=0;entryX=0.5;entryY=1;entryDx=0;entryDy=0;exitX=0;exitY=0.75;exitDx=0;exitDy=0;" parent="1" source="PfiAu45vPu5QX1juMYGj-79" target="PfiAu45vPu5QX1juMYGj-41" edge="1">
                    <mxGeometry width="50" height="50" relative="1" as="geometry">
                        <mxPoint x="350" y="1210" as="sourcePoint"/>
                        <mxPoint x="280" y="1040" as="targetPoint"/>
                        <Array as="points">
                            <mxPoint x="370" y="1180"/>
                            <mxPoint x="230" y="1040"/>
                        </Array>
                    </mxGeometry>
                </mxCell>
                <mxCell id="PfiAu45vPu5QX1juMYGj-116" value="We use the no-team player stats predictor to train the LSTM, then freeze its weights to be used for the team stats predictor" style="text;whiteSpace=wrap;html=1;align=center;fontStyle=2" parent="1" vertex="1">
                    <mxGeometry x="340" y="1140" width="225" height="50" as="geometry"/>
                </mxCell>
                <mxCell id="PfiAu45vPu5QX1juMYGj-117" value="Shared weights and aggregation makes this model permutation invariant." style="text;html=1;align=center;verticalAlign=middle;whiteSpace=wrap;rounded=0;fontStyle=2" parent="1" vertex="1">
                    <mxGeometry x="445" y="665" width="100" height="30" as="geometry"/>
                </mxCell>
            </root>
        </mxGraphModel>
    </diagram>
</mxfile>